<svg id="Logo" xmlns="http://www.w3.org/2000/svg" xmlns:xlink="http://www.w3.org/1999/xlink" x="0px" y="0px"
	 viewBox="0 0 40 58.8" style="enable-background:new 0 0 40 58.8;" xml:space="preserve">
<g id="group">
	<path id="mate" d="M38.4,36.2c-1-3.1-3-11.3-3.8-14.8c-0.3-1.2-1.4-2.1-2.7-2.1h-7.6l6.3-15c0.3-0.6,0.3-1.2,0-1.7
		c-0.3-0.6-0.6-1-1.2-1.2l-2-0.8c-0.6-0.3-1.2-0.3-1.7,0s-1,0.6-1.2,1.2L17,19.3H8c-1.3,0-2.4,0.8-2.7,2.1
		c-0.8,3.4-2.7,11.7-3.8,14.8c-0.5,1.7-1,3.5-1,5.4c0,9.3,8.7,16.7,19.4,16.7v-2.7c-9.3,0-16.8-6.3-16.8-14c0-1.6,0.5-3.2,0.9-4.6
		c0.6-1.7,1.4-5,2.2-8.2h27.3c0.8,3.2,1.6,6.4,2.2,8.2c0.5,1.4,0.9,3,0.9,4.6c0,7.8-7.5,14-16.8,14v2.7c10.7,0,19.4-7.5,19.4-16.7
		C39.4,39.7,38.9,37.9,38.4,36.2z M26.8,3.2l1.4,0.6l-6.7,15.6H20h-0.1L26.8,3.2z M7,26.3c0.4-1.7,0.8-3.2,1-4.2h7.8H20l12,0.1
		c0.3,1,0.6,2.5,1,4.1C33,26.3,7,26.3,7,26.3z"/>
	<g id="mate-line">
		<path d="M20,51.6L20,51.6c0-0.7,0.5-1.3,1.2-1.3c5.2-0.5,9.4-3.9,10-8.2c0.1-0.6,0.6-1.2,1.3-1.2l0,0c0.8,0,1.5,0.7,1.4,1.6
			c-0.8,5.5-6,9.9-12.4,10.5C20.7,53,20,52.4,20,51.6z"/>
	</g>
</g>
</svg>
